# xmcd
#
# Track frame offsets: 
#        150
#        26199
#        50070
#        73230
#        102039
#        138079
#        159363
#        177471
#        194026
#        229541
#        251879
#        274218
#        296225
#        316384
#        336302
#
# Disc length: 4781 seconds
#
# Revision: 4
# Processed by: cddbd v1.5.2PL0 Copyright (c) Steve Scherf et al.
# Submitted via: ExactAudioCopy v1.3
#
DISCID=ef12ab0f
DTITLE=Various Artist - Akella Presents - vol. 01 - Various Styles Of
DTITLE=Blues  CD2
DYEAR=2013
DGENRE=Blues
TTITLE0=PETER GARSTENAUER - Down for You
TTITLE1=NEAL BLACK - Bridge in Tennessee
TTITLE2=J.J.CALE - Sensitive Kind
TTITLE3=JEFF HEALEY - I Think I Love You Too Much
TTITLE4=CRAIG ERICKSON - No Reply
TTITLE5=HUEY LEWIS - Thank You #19
TTITLE6=GREGG ALLMAN - House of Blues
TTITLE7=Dr. HECTOR and The GROOVE INJECTORS - Emergency
TTITLE8=RED HOT BLUES - One Bottle
TTITLE9=HIFI MOJO - Refuge in the Blues
TTITLE10=JOHNNY NICHOLAS - Hard Time Livin'
TTITLE11=JIMMY THACKERY - Love to Ride
TTITLE12=GREGG ROLIE - Give It To Me
TTITLE13=ROBERTO CIOTTI - Tender Touch
TTITLE14=ALVIN LEE - My Baby's Come Back To Me
EXTD=
EXTT0=
EXTT1=
EXTT2=
EXTT3=
EXTT4=
EXTT5=
EXTT6=
EXTT7=
EXTT8=
EXTT9=
EXTT10=
EXTT11=
EXTT12=
EXTT13=
EXTT14=
PLAYORDER=
